# xmcd
#
# Track frame offsets:
#	150
#	18918
#	41226
#	56338
#	71209
#	89931
#	107576
#	131430
#	153924
#	169594
#	182084
#	195979
#	214843
#	230889
#	255526
#
# Disc length: 3613 seconds
#
# Revision: 0
# Processed by: cddbd v1.5PL3 Copyright (c) Steve Scherf et al.
# Submitted via: dBpowerAMP V4.0
#
DISCID=d20e1b0f
DTITLE=NiteLife - Not Your Average Blues Band
DYEAR=2003
DGENRE=Blues
TTITLE0=Itty Bitty Pretty One Medley
TTITLE1=Big Legged Woman
TTITLE2=Crosscut Saw
TTITLE3=Searchin'
TTITLE4=My Baby Whips Me With Her Love
TTITLE5=Blues On The Move
TTITLE6=Mustang Sally
TTITLE7=Since I Met You Baby
TTITLE8=Unchain My Heart
TTITLE9=Bright Lights Big City
TTITLE10=Angelina
TTITLE11=Oop Oop Eee Do
TTITLE12=She's Into Something
TTITLE13=Well Hello There
TTITLE14=Sabo A Mi
EXTD=
EXTT0=
EXTT1=
EXTT2=
EXTT3=
EXTT4=
EXTT5=
EXTT6=
EXTT7=
EXTT8=
EXTT9=
EXTT10=
EXTT11=
EXTT12=
EXTT13=
EXTT14=
PLAYORDER=
